<?xml version="1.0" encoding="UTF-8" standalone="no"?>
<!-- Created with Inkscape (http://www.inkscape.org/) -->

<svg
   width="6.614583mm"
   height="6.6145859mm"
   viewBox="0 0 6.6145828 6.6145857"
   version="1.1"
   id="svg984"
   inkscape:version="1.2.2 (b0a8486541, 2022-12-01)"
   sodipodi:docname="aperture.svg"
   xmlns:inkscape="http://www.inkscape.org/namespaces/inkscape"
   xmlns:sodipodi="http://sodipodi.sourceforge.net/DTD/sodipodi-0.dtd"
   xmlns="http://www.w3.org/2000/svg"
   xmlns:svg="http://www.w3.org/2000/svg">
  <sodipodi:namedview
     id="namedview986"
     pagecolor="#ffffff"
     bordercolor="#000000"
     borderopacity="0.25"
     inkscape:showpageshadow="2"
     inkscape:pageopacity="0.0"
     inkscape:pagecheckerboard="0"
     inkscape:deskcolor="#d1d1d1"
     inkscape:document-units="mm"
     showgrid="false"
     inkscape:zoom="54.119978"
     inkscape:cx="12.490766"
     inkscape:cy="12.500005"
     inkscape:window-width="2768"
     inkscape:window-height="1645"
     inkscape:window-x="0"
     inkscape:window-y="0"
     inkscape:window-maximized="1"
     inkscape:current-layer="layer1" />
  <defs
     id="defs981" />
  <g
     inkscape:label="Layer 1"
     inkscape:groupmode="layer"
     id="layer1"
     transform="translate(-54.323668,-98.999514)">
    <path
       d="m 57.63096,105.31339 c -1.660628,0 -3.006587,-1.34619 -3.006587,-3.00658 0,-1.66063 1.345959,-3.006824 3.006587,-3.006824 1.660628,0 3.006586,1.346194 3.006586,3.006824 0,1.66039 -1.345958,3.00658 -3.006586,3.00658 z m 3.047316,-4.29412 c -0.166645,-0.39381 -0.404974,-0.74758 -0.708705,-1.051076 -0.303731,-0.303731 -0.657269,-0.54206 -1.051071,-0.708705 -0.408001,-0.172696 -0.841137,-0.259975 -1.28754,-0.259975 -0.446403,0 -0.87954,0.08728 -1.28754,0.259975 -0.393803,0.166645 -0.747341,0.404974 -1.051072,0.708705 -0.30373,0.303496 -0.54206,0.657266 -0.708705,1.051076 -0.172463,0.408 -0.259975,0.84113 -0.259975,1.28754 0,0.44617 0.08751,0.8793 0.259975,1.2873 0.166645,0.39381 0.404975,0.74758 0.708705,1.05131 0.303731,0.3035 0.657269,0.54206 1.051072,0.70847 0.408,0.1727 0.841137,0.26021 1.28754,0.26021 0.446403,0 0.879539,-0.0875 1.28754,-0.26021 0.393802,-0.16641 0.74734,-0.40497 1.051071,-0.70847 0.303731,-0.30373 0.54206,-0.6575 0.708705,-1.05131 0.172464,-0.408 0.259975,-0.84113 0.259975,-1.2873 0,-0.44641 -0.08751,-0.87954 -0.259975,-1.28754"
       style="fill:#231f20;fill-opacity:1;fill-rule:nonzero;stroke:none;stroke-width:0.00232744"
       id="path342" />
    <path
       d="m 59.960959,101.34162 v 1.7095 c 0.199695,-0.22669 0.354935,-0.47899 0.466187,-0.74594 -4.62e-4,-0.62888 -0.208539,-1.20911 -0.559284,-1.67599 0.06005,0.22972 0.0917,0.46874 0.0931,0.71243 v 0"
       style="fill:#231f20;fill-opacity:1;fill-rule:nonzero;stroke:none;stroke-width:0.00232744"
       id="path344" />
    <path
       d="m 59.960959,103.27199 -1.20794,1.20818 c 0.304196,-0.0207 0.594893,-0.0919 0.863945,-0.20505 0.413353,-0.41731 0.696137,-0.96402 0.782253,-1.57405 -0.120097,0.20552 -0.266725,0.39707 -0.438258,0.57069 v 2.7e-4"
       style="fill:#231f20;fill-opacity:1;fill-rule:nonzero;stroke:none;stroke-width:0.00232744"
       id="path346" />
    <path
       d="m 56.66577,104.63704 -0.0016,-0.002 c -0.0056,-0.005 -0.0114,-0.0109 -0.01699,-0.0165 l 2.31e-4,-2.6e-4 -1.189321,-1.18932 c 0.02141,0.30536 0.09356,0.59745 0.208305,0.8672 0.420103,0.41475 0.970775,0.6973 1.584754,0.78063 -0.210633,-0.11964 -0.407302,-0.26696 -0.585351,-0.44012 v 0"
       style="fill:#231f20;fill-opacity:1;fill-rule:nonzero;stroke:none;stroke-width:0.00232744"
       id="path348" />
    <path
       d="m 58.02709,99.538781 c 0.205978,0.120562 0.398225,0.267656 0.572317,0.439887 l -6.99e-4,6.99e-4 1.206545,1.206313 c -0.01909,-0.30117 -0.08751,-0.58931 -0.197368,-0.85627 -0.417775,-0.417772 -0.967283,-0.703582 -1.580796,-0.790628"
       style="fill:#231f20;fill-opacity:1;fill-rule:nonzero;stroke:none;stroke-width:0.00232744"
       id="path350" />
    <path
       d="m 56.66577,99.976806 h 1.711134 c -0.226926,-0.199694 -0.479453,-0.354935 -0.746177,-0.466187 -0.630736,2.64e-4 -1.212363,0.209005 -1.679946,0.561151 0.230649,-0.0607 0.470376,-0.0931 0.714757,-0.09496 h 2.31e-4"
       style="fill:#231f20;fill-opacity:1;fill-rule:nonzero;stroke:none;stroke-width:0.00232744"
       id="path352" />
    <path
       d="m 55.300727,103.27199 v -1.7102 c -0.199927,0.22786 -0.355167,0.48155 -0.465953,0.74967 0.0012,0.63213 0.211797,1.21492 0.566499,1.68274 -0.06307,-0.23274 -0.09729,-0.4748 -0.10008,-0.72174 l -4.69e-4,-4.6e-4"
       style="fill:#231f20;fill-opacity:1;fill-rule:nonzero;stroke:none;stroke-width:0.00232744"
       id="path354" />
    <path
       d="m 58.596149,104.63704 h -1.707875 c 0.232744,0.20132 0.49202,0.35656 0.76596,0.46572 0.623521,-0.005 1.198398,-0.21436 1.661094,-0.56394 -0.231813,0.0621 -0.472936,0.0954 -0.718946,0.098 l -2.64e-4,2.6e-4"
       style="fill:#231f20;fill-opacity:1;fill-rule:nonzero;stroke:none;stroke-width:0.00232744"
       id="path356" />
    <path
       d="m 55.30608,101.33626 1.203519,-1.20328 c -0.302334,0.0195 -0.591402,0.0891 -0.85929,0.20016 -0.416612,0.41824 -0.701723,0.96751 -0.787839,1.58056 0.121027,-0.20807 0.269285,-0.40218 0.443145,-0.5779 l 4.68e-4,4.6e-4"
       style="fill:#231f20;fill-opacity:1;fill-rule:nonzero;stroke:none;stroke-width:0.00232744"
       id="path358" />
  </g>
</svg>
