<?xml version="1.0" encoding="UTF-8" standalone="no"?>
<!-- Created with Inkscape (http://www.inkscape.org/) -->

<svg
   width="6.614583mm"
   height="6.6145859mm"
   viewBox="0 0 6.614583 6.6145859"
   version="1.1"
   id="svg1265"
   inkscape:version="1.2.2 (b0a8486541, 2022-12-01)"
   sodipodi:docname="aperture-sel.svg"
   xmlns:inkscape="http://www.inkscape.org/namespaces/inkscape"
   xmlns:sodipodi="http://sodipodi.sourceforge.net/DTD/sodipodi-0.dtd"
   xmlns="http://www.w3.org/2000/svg"
   xmlns:svg="http://www.w3.org/2000/svg">
  <sodipodi:namedview
     id="namedview1267"
     pagecolor="#ffffff"
     bordercolor="#000000"
     borderopacity="0.25"
     inkscape:showpageshadow="2"
     inkscape:pageopacity="0.0"
     inkscape:pagecheckerboard="0"
     inkscape:deskcolor="#d1d1d1"
     inkscape:document-units="mm"
     showgrid="false"
     inkscape:zoom="3.5705489"
     inkscape:cx="189.6067"
     inkscape:cy="189.46667"
     inkscape:window-width="2768"
     inkscape:window-height="1645"
     inkscape:window-x="0"
     inkscape:window-y="0"
     inkscape:window-maximized="1"
     inkscape:current-layer="layer1" />
  <defs
     id="defs1262" />
  <g
     inkscape:label="Layer 1"
     inkscape:groupmode="layer"
     id="layer1"
     transform="translate(-54.323668,-98.999514)">
    <path
       d="m 57.63096,105.31363 c -1.660628,0 -3.006587,-1.3462 -3.006587,-3.00682 0,-1.6604 1.345959,-3.006591 3.006587,-3.006591 1.660628,0 3.006586,1.346191 3.006586,3.006591 0,1.66062 -1.345958,3.00682 -3.006586,3.00682 z m 3.047316,-4.29413 c -0.166645,-0.3938 -0.404974,-0.74758 -0.708705,-1.051305 -0.303731,-0.303499 -0.657269,-0.542061 -1.051071,-0.708473 -0.408001,-0.172696 -0.841137,-0.260208 -1.28754,-0.260208 -0.446403,0 -0.87954,0.08751 -1.28754,0.260208 -0.393803,0.166412 -0.747341,0.404974 -1.051072,0.708473 -0.30373,0.303725 -0.54206,0.657505 -0.708705,1.051305 -0.172463,0.40777 -0.259975,0.84114 -0.259975,1.28731 0,0.4464 0.08751,0.87954 0.259975,1.28754 0.166645,0.3938 0.404975,0.74757 0.708705,1.05107 0.303731,0.30373 0.657269,0.54206 1.051072,0.7087 0.408,0.17247 0.841137,0.25998 1.28754,0.25998 0.446403,0 0.879539,-0.0875 1.28754,-0.25998 0.393802,-0.16664 0.74734,-0.40497 1.051071,-0.7087 0.303731,-0.3035 0.54206,-0.65727 0.708705,-1.05107 0.172464,-0.408 0.259975,-0.84114 0.259975,-1.28754 0,-0.44617 -0.08751,-0.87954 -0.259975,-1.28731"
       style="fill:#231f20;fill-opacity:1;fill-rule:nonzero;stroke:none;stroke-width:0.00232744"
       id="path288" />
    <path
       d="m 55.310037,102.29331 c 0.568826,-0.48318 1.287772,-0.72291 2.030691,-0.67822 l 0.374252,-0.003 c -0.662389,-0.66681 -1.605002,-0.92399 -2.481981,-0.74431 -0.25276,0.42033 -0.398225,0.91258 -0.398225,1.43859 0,0.15384 0.01257,0.30466 0.03654,0.45175 0.127078,-0.16897 0.273939,-0.32514 0.438722,-0.46525"
       style="fill:#231f20;fill-opacity:1;fill-rule:nonzero;stroke:none;stroke-width:0.00232744"
       id="path290" />
    <path
       d="m 56.017579,100.66922 c 0.74897,0.0607 1.439055,0.39706 1.933403,0.96053 l 0.218315,0.23345 c -0.05958,-0.95356 -0.614212,-1.77654 -1.408101,-2.214331 -0.576275,0.188523 -1.070157,0.559051 -1.413455,1.043621 0.219013,-0.0333 0.44361,-0.0417 0.669838,-0.0233"
       style="fill:#231f20;fill-opacity:1;fill-rule:nonzero;stroke:none;stroke-width:0.00232744"
       id="path292" />
    <path
       d="m 59.309044,103.9011 c -0.7634,-0.0314 -1.469546,-0.35726 -1.988565,-0.91748 l -0.230184,-0.2353 c 0.02025,0.94401 0.528795,1.78026 1.289169,2.2532 0.654942,-0.18154 1.212829,-0.59513 1.580332,-1.14673 -0.173162,0.0324 -0.350513,0.0489 -0.529958,0.0489 -0.04026,0 -0.08053,-9.3e-4 -0.120794,-0.003"
       style="fill:#231f20;fill-opacity:1;fill-rule:nonzero;stroke:none;stroke-width:0.00232744"
       id="path294" />
    <path
       d="m 59.951185,102.25025 c -0.534148,0.49202 -1.220045,0.75921 -1.942249,0.75921 -0.03747,0 -0.07494,-7e-4 -0.112648,-0.002 l -0.347021,-0.006 c 0.686362,0.65517 1.644569,0.88443 2.520849,0.67333 0.227158,-0.40428 0.35703,-0.87093 0.35703,-1.36784 0,-0.18596 -0.01839,-0.3675 -0.05307,-0.54322 -0.120794,0.17549 -0.262303,0.33864 -0.422895,0.48666"
       style="fill:#231f20;fill-opacity:1;fill-rule:nonzero;stroke:none;stroke-width:0.00232744"
       id="path296" />
    <path
       d="m 56.037362,104.00607 c 0.02839,-0.75851 0.347719,-1.4614 0.89909,-1.98135 l 0.258811,-0.26416 c -0.936329,-0.009 -1.783982,0.46572 -2.28252,1.20351 0.16711,0.69381 0.592799,1.28661 1.169538,1.67111 -0.03747,-0.20505 -0.05283,-0.41592 -0.04492,-0.62911"
       style="fill:#231f20;fill-opacity:1;fill-rule:nonzero;stroke:none;stroke-width:0.00232744"
       id="path298" />
    <path
       d="m 59.080489,99.915362 c 0.04957,0.211328 0.07541,0.429878 0.07587,0.652378 0.0019,0.7641 -0.292791,1.48375 -0.829964,2.02674 l -9.31e-4,-9.3e-4 v 9.3e-4 l -0.263931,0.26393 c 0.949828,-0.0189 1.79143,-0.53252 2.2639,-1.30057 -0.192013,-0.69288 -0.644235,-1.27777 -1.244947,-1.642478"
       style="fill:#231f20;fill-opacity:1;fill-rule:nonzero;stroke:none;stroke-width:0.00232744"
       id="path300" />
    <path
       d="m 57.705903,104.64216 c -0.517855,-0.55789 -0.793657,-1.28312 -0.769451,-2.04326 v -0.36215 c -0.651683,0.68357 -0.880936,1.63596 -0.674725,2.50851 0.404742,0.22763 0.871626,0.35773 1.369233,0.35773 0.186195,0 0.367968,-0.0184 0.543923,-0.0531 -0.16874,-0.11731 -0.326075,-0.25369 -0.46898,-0.40777"
       style="fill:#231f20;fill-opacity:1;fill-rule:nonzero;stroke:none;stroke-width:0.00232744"
       id="path302" />
    <path
       d="m 58.325002,102.0182 h -6.99e-4 l 0.0012,9.3e-4 v 0.35587 c 0.632598,-0.71639 0.822284,-1.69112 0.56999,-2.562512 -0.379606,-0.192945 -0.809484,-0.301869 -1.264498,-0.301869 -0.229719,0 -0.45292,0.02793 -0.666346,0.0803 0.184333,0.114277 0.356796,0.250433 0.514364,0.407302 0.541595,0.538799 0.842068,1.256119 0.846024,2.019979"
       style="fill:#231f20;fill-opacity:1;fill-rule:nonzero;stroke:none;stroke-width:0.00232744"
       id="path304" />
  </g>
</svg>
