<?xml version="1.0" encoding="UTF-8" standalone="no"?>
<svg
   width="25"
   height="35.268"
   viewBox="0 0 6.615 9.331"
   version="1.1"
   id="svg2"
   sodipodi:docname="lock-open2.svg"
   inkscape:version="1.4.2 (ebf0e940d0, 2025-05-08)"
   xmlns:inkscape="http://www.inkscape.org/namespaces/inkscape"
   xmlns:sodipodi="http://sodipodi.sourceforge.net/DTD/sodipodi-0.dtd"
   xmlns="http://www.w3.org/2000/svg"
   xmlns:svg="http://www.w3.org/2000/svg">
  <defs
     id="defs2" />
  <sodipodi:namedview
     id="namedview2"
     pagecolor="#505050"
     bordercolor="#ffffff"
     borderopacity="1"
     inkscape:showpageshadow="0"
     inkscape:pageopacity="0"
     inkscape:pagecheckerboard="1"
     inkscape:deskcolor="#505050"
     inkscape:zoom="30.934557"
     inkscape:cx="12.494118"
     inkscape:cy="17.634001"
     inkscape:window-width="2304"
     inkscape:window-height="1371"
     inkscape:window-x="0"
     inkscape:window-y="0"
     inkscape:window-maximized="1"
     inkscape:current-layer="svg2" />
  <path
     d="M38.827 51.34h-.52c.091-.126.172-.243.215-.314.584-.97.327-2.277-.586-2.975a2.99 2.99 0 0 0-.175-.123 2.476 2.476 0 0 0-1.72-.397c-.613.08-1.201.399-1.572.855-.131.161-.52.743-.611.871l.852.56.058-.084c.34-.496.609-.887.989-1.064.459-.213.957-.192 1.367.059l.043.027c.407.267.626.7.6 1.187-.022.448-.313.845-.716 1.396l-.002.002h-4.408a.219.219 0 0 0-.222.214v5.071c0 .119.1.215.222.215h6.17a.219.219 0 0 0 .223-.215v-5.071a.218.218 0 0 0-.207-.214"
     style="fill:#f6f5f4;fill-opacity:1;fill-rule:nonzero;stroke:none;stroke-width:0.0016197"
     transform="translate(-32.419 -47.508)"
     id="path1" />
  <path
     d="M36.655 53.163c0-.494-.416-.895-.929-.895-.513 0-.928.4-.928.895 0 .297.15.56.382.723l-.24 1.95h1.573l-.24-1.95a.883.883 0 0 0 .382-.723"
     style="fill:#241f31;fill-opacity:1;fill-rule:evenodd;stroke:none;stroke-width:0.0016197"
     transform="translate(-32.419 -47.508)"
     id="path2" />
</svg>
