<?xml version="1.0" encoding="UTF-8" standalone="no"?>
<!-- Created with Inkscape (http://www.inkscape.org/) -->

<svg
   width="5.3173771mm"
   height="6.6145802mm"
   viewBox="0 0 5.317377 6.6145802"
   version="1.1"
   id="svg1097"
   inkscape:version="1.2.2 (b0a8486541, 2022-12-01)"
   sodipodi:docname="lock.svg"
   xmlns:inkscape="http://www.inkscape.org/namespaces/inkscape"
   xmlns:sodipodi="http://sodipodi.sourceforge.net/DTD/sodipodi-0.dtd"
   xmlns="http://www.w3.org/2000/svg"
   xmlns:svg="http://www.w3.org/2000/svg">
  <sodipodi:namedview
     id="namedview1099"
     pagecolor="#ffffff"
     bordercolor="#000000"
     borderopacity="0.25"
     inkscape:showpageshadow="2"
     inkscape:pageopacity="0.0"
     inkscape:pagecheckerboard="0"
     inkscape:deskcolor="#d1d1d1"
     inkscape:document-units="mm"
     showgrid="false"
     inkscape:zoom="14.388834"
     inkscape:cx="37.807093"
     inkscape:cy="47.015622"
     inkscape:window-width="2768"
     inkscape:window-height="1645"
     inkscape:window-x="0"
     inkscape:window-y="0"
     inkscape:window-maximized="1"
     inkscape:current-layer="layer1" />
  <defs
     id="defs1094" />
  <g
     inkscape:label="Layer 1"
     inkscape:groupmode="layer"
     id="layer1"
     transform="translate(-95.356133,-137.81266)">
    <path
       d="m 99.091654,140.45862 h -2.153452 v -0.71304 c 0,-0.59871 0.482818,-1.08523 1.076879,-1.08523 0.593446,0 1.076573,0.48652 1.076573,1.08523 z m -0.83233,2.0223 v 0.36508 c 0,0.0545 -0.04371,0.0987 -0.09794,0.0987 h -0.29332 c -0.05382,0 -0.09784,-0.0441 -0.09784,-0.0987 v -0.36508 c -0.133721,-0.0831 -0.223521,-0.23074 -0.223521,-0.40075 0,-0.26063 0.209603,-0.47168 0.46828,-0.47168 0.258268,0 0.467866,0.21105 0.467866,0.47168 0,0.17001 -0.0899,0.31765 -0.223519,0.40075 z m 1.830746,-2.0223 h -0.157741 v -0.71304 c 0,-1.06585 -0.860163,-1.93292 -1.917248,-1.93292 -1.057598,0 -1.917762,0.86707 -1.917762,1.93292 v 0.71304 h -0.157434 c -0.32229,0 -0.583752,0.26342 -0.583752,0.58828 v 2.79175 c 0,0.32507 0.261462,0.58859 0.583752,0.58859 h 4.150185 c 0.32209,0 0.58344,-0.26352 0.58344,-0.58859 v -2.79175 c 0,-0.32486 -0.26135,-0.58828 -0.58344,-0.58828"
       style="fill:#4d4e50;fill-opacity:1;fill-rule:nonzero;stroke:none;stroke-width:0.01031"
       id="path16" />
  </g>
</svg>
