<svg xmlns="http://www.w3.org/2000/svg" width="25" height="32.965" viewBox="0 0 6.615 8.722">
  <path d="M38.827 57.368a44.719 44.719 0 0 0-.66 0c0-.138.023-.84.006-1.073-.085-1.12-1.061-2.06-2.223-2.142a3.176 3.176 0 0 0-.216-.007 2.46 2.46 0 0 0-1.654.604 2.33 2.33 0 0 0-.8 1.56c-.015.207.005.914.004 1.057h-.643a.218.218 0 0 0-.222.215v5.071c0 .119.1.215.222.215h6.17a.219.219 0 0 0 .223-.215v-5.071a.218.218 0 0 0-.207-.214zm-1.688-.018v.017h-2.823l-.002-.106c-.008-.594-.015-1.063.196-1.415a1.39 1.39 0 0 1 1.215-.694c.492 0 .926.239 1.19.655.243.383.235.87.224 1.543" style="fill:#231f20;fill-opacity:1;fill-rule:nonzero;stroke:none;stroke-width:.0016197" transform="translate(-32.419 -54.146)"/>
  <path d="M36.673 59.19c0-.493-.416-.894-.93-.894-.512 0-.928.4-.928.895 0 .297.15.56.382.723l-.24 1.95h1.574l-.24-1.95a.883.883 0 0 0 .382-.723" style="fill:#fff;fill-opacity:1;fill-rule:evenodd;stroke:none;stroke-width:.0016197" transform="translate(-32.419 -54.146)"/>
</svg>
