<svg xmlns="http://www.w3.org/2000/svg" width="25" height="35.268" viewBox="0 0 6.615 9.331">
  <path d="M38.827 51.34h-.52c.091-.126.172-.243.215-.314.584-.97.327-2.277-.586-2.975a2.99 2.99 0 0 0-.175-.123 2.476 2.476 0 0 0-1.72-.397c-.613.08-1.201.399-1.572.855-.131.161-.52.743-.611.871l.852.56.058-.084c.34-.496.609-.887.989-1.064.459-.213.957-.192 1.367.059l.043.027c.407.267.626.7.6 1.187-.022.448-.313.845-.716 1.396l-.002.002h-4.408a.219.219 0 0 0-.222.214v5.071c0 .119.1.215.222.215h6.17a.219.219 0 0 0 .223-.215v-5.071a.218.218 0 0 0-.207-.214" style="fill:#231f20;fill-opacity:1;fill-rule:nonzero;stroke:none;stroke-width:.0016197" transform="translate(-32.419 -47.508)"/>
  <path d="M36.655 53.163c0-.494-.416-.895-.929-.895-.513 0-.928.4-.928.895 0 .297.15.56.382.723l-.24 1.95h1.573l-.24-1.95a.883.883 0 0 0 .382-.723" style="fill:#fff;fill-opacity:1;fill-rule:evenodd;stroke:none;stroke-width:.0016197" transform="translate(-32.419 -47.508)"/>
</svg>
