<?xml version="1.0" encoding="UTF-8" standalone="no"?>
<!-- Created with Inkscape (http://www.inkscape.org/) -->

<svg
   width="6.614583mm"
   height="8.7219057mm"
   viewBox="0 0 6.6145829 8.7219057"
   version="1.1"
   id="svg530"
   inkscape:version="1.2.2 (b0a8486541, 2022-12-01)"
   sodipodi:docname="lock-closed.svg"
   xmlns:inkscape="http://www.inkscape.org/namespaces/inkscape"
   xmlns:sodipodi="http://sodipodi.sourceforge.net/DTD/sodipodi-0.dtd"
   xmlns="http://www.w3.org/2000/svg"
   xmlns:svg="http://www.w3.org/2000/svg">
  <sodipodi:namedview
     id="namedview532"
     pagecolor="#ffffff"
     bordercolor="#000000"
     borderopacity="0.25"
     inkscape:showpageshadow="2"
     inkscape:pageopacity="0.0"
     inkscape:pagecheckerboard="true"
     inkscape:deskcolor="#d1d1d1"
     inkscape:document-units="mm"
     showgrid="false"
     inkscape:zoom="8.7722772"
     inkscape:cx="-22.001129"
     inkscape:cy="9.518623"
     inkscape:window-width="2768"
     inkscape:window-height="1645"
     inkscape:window-x="0"
     inkscape:window-y="0"
     inkscape:window-maximized="1"
     inkscape:current-layer="layer1" />
  <defs
     id="defs527" />
  <g
     inkscape:label="Layer 1"
     inkscape:groupmode="layer"
     id="layer1"
     transform="translate(-32.418983,-54.145699)">
    <path
       d="m 38.827354,57.367745 c -0.02485,-0.0018 -0.598283,-0.0015 -0.632734,-3.21e-4 -0.0092,3.21e-4 -0.01827,6.47e-4 -0.02715,9.73e-4 -0.0012,-0.138484 0.02287,-0.840946 0.0053,-1.073859 -0.08456,-1.119211 -1.060868,-2.059769 -2.222693,-2.141239 -0.07279,-0.005 -0.145676,-0.0076 -0.21657,-0.0076 -0.632978,0 -1.189343,0.203434 -1.653662,0.604795 -0.460755,0.398283 -0.759848,0.981212 -0.800098,1.559444 -0.01438,0.206835 0.0051,0.913671 0.0043,1.057338 h -0.642582 c -0.122854,0 -0.222482,0.09589 -0.222482,0.214286 v 5.071757 c 0,0.118238 0.09963,0.214286 0.222482,0.214286 h 6.169587 c 0.122887,0 0.222514,-0.09605 0.222514,-0.214286 v -5.071761 c 0,-0.112407 -0.08997,-0.20554 -0.20622,-0.2138 z m -1.688663,-0.01798 c -9.2e-5,0.0058 -1.84e-4,0.01166 -2.76e-4,0.01749 h -2.822888 c -4.55e-4,-0.0358 -9.4e-4,-0.07127 -0.0015,-0.106252 -0.0084,-0.593943 -0.01506,-1.063007 0.196016,-1.415291 0.254713,-0.425171 0.679025,-0.677681 1.16414,-0.692907 0.01725,-6.47e-4 0.03429,-8.09e-4 0.05126,-8.09e-4 0.492048,0 0.925867,0.238905 1.190186,0.655491 0.24263,0.38241 0.234418,0.868967 0.223016,1.542275"
       style="fill:#231f20;fill-opacity:1;fill-rule:nonzero;stroke:none;stroke-width:0.0016197"
       id="path32" />
    <path
       d="m 36.672607,59.190876 c 0,-0.49417 -0.415825,-0.894721 -0.928767,-0.894721 -0.512942,0 -0.928766,0.400551 -0.928766,0.894721 0,0.297376 0.150648,0.560577 0.38228,0.723195 l -0.240217,1.950277 h 1.573422 l -0.240201,-1.950277 c 0.231617,-0.162618 0.382249,-0.42598 0.382249,-0.723195"
       style="fill:#ffffff;fill-opacity:1;fill-rule:evenodd;stroke:none;stroke-width:0.0016197"
       id="path36" />
  </g>
</svg>
