<?xml version="1.0" encoding="UTF-8" standalone="no"?>
<svg
   width="25"
   height="32.965"
   viewBox="0 0 6.615 8.722"
   version="1.1"
   id="svg2"
   sodipodi:docname="lock-closed2.svg"
   inkscape:version="1.4.2 (ebf0e940d0, 2025-05-08)"
   xmlns:inkscape="http://www.inkscape.org/namespaces/inkscape"
   xmlns:sodipodi="http://sodipodi.sourceforge.net/DTD/sodipodi-0.dtd"
   xmlns="http://www.w3.org/2000/svg"
   xmlns:svg="http://www.w3.org/2000/svg">
  <defs
     id="defs2" />
  <sodipodi:namedview
     id="namedview2"
     pagecolor="#505050"
     bordercolor="#ffffff"
     borderopacity="1"
     inkscape:showpageshadow="0"
     inkscape:pageopacity="0"
     inkscape:pagecheckerboard="1"
     inkscape:deskcolor="#505050"
     inkscape:zoom="33.095707"
     inkscape:cx="12.494067"
     inkscape:cy="16.4825"
     inkscape:window-width="2304"
     inkscape:window-height="1371"
     inkscape:window-x="0"
     inkscape:window-y="0"
     inkscape:window-maximized="1"
     inkscape:current-layer="svg2" />
  <path
     d="M38.827 57.368a44.719 44.719 0 0 0-.66 0c0-.138.023-.84.006-1.073-.085-1.12-1.061-2.06-2.223-2.142a3.176 3.176 0 0 0-.216-.007 2.46 2.46 0 0 0-1.654.604 2.33 2.33 0 0 0-.8 1.56c-.015.207.005.914.004 1.057h-.643a.218.218 0 0 0-.222.215v5.071c0 .119.1.215.222.215h6.17a.219.219 0 0 0 .223-.215v-5.071a.218.218 0 0 0-.207-.214zm-1.688-.018v.017h-2.823l-.002-.106c-.008-.594-.015-1.063.196-1.415a1.39 1.39 0 0 1 1.215-.694c.492 0 .926.239 1.19.655.243.383.235.87.224 1.543"
     style="fill:#f6f5f4;fill-opacity:1;fill-rule:nonzero;stroke:none;stroke-width:0.0016197"
     transform="translate(-32.419 -54.146)"
     id="path1" />
  <path
     d="M36.673 59.19c0-.493-.416-.894-.93-.894-.512 0-.928.4-.928.895 0 .297.15.56.382.723l-.24 1.95h1.574l-.24-1.95a.883.883 0 0 0 .382-.723"
     style="fill:#241f31;fill-opacity:1;fill-rule:evenodd;stroke:none;stroke-width:0.0016197"
     transform="translate(-32.419 -54.146)"
     id="path2" />
</svg>
